<?xml version="1.0" encoding="UTF-8"?>

<svg xmlns="http://www.w3.org/2000/svg"
viewBox="0 0 24 24"
width="32"
height="32"
fill="white">

<title>Spotify</title>

<path d="M12 0C5.372 0 0 5.373 0 12s5.372 12 12 12 12-5.373 12-12S18.628 0 12 0zm5.504 17.34a.748.748 0 0 1-1.03.248c-2.82-1.724-6.36-2.115-10.512-1.16a.75.75 0 0 1-.336-1.462c4.548-1.042 8.462-.592 11.63 1.348a.748.748 0 0 1 .248 1.026zm1.472-3.276a.936.936 0 0 1-1.288.308c-3.228-1.984-8.148-2.56-11.968-1.4a.937.937 0 0 1-.544-1.792c4.36-1.324 9.776-.684 13.488 1.596a.936.936 0 0 1 .312 1.288zm.128-3.412C15.232 8.36 8.84 8.148 5.148 9.268a1.125 1.125 0 1 1-.652-2.154c4.244-1.288 11.3-1.04 15.748 1.476a1.125 1.125 0 1 1-1.14 1.962z"/>

</svg>