<?xml version="1.0" encoding="UTF-8"?>

<svg xmlns="http://www.w3.org/2000/svg"
     width="70"
     height="70"
     viewBox="0 0 168 168">

    <circle cx="84" cy="84" r="84" fill="#1ED760"/>

    <path fill="black"
     d="M119.1 113.4a5.2 5.2 0 0 1-7.2 1.7c-19.7-12-44.5-14.7-73.7-8.2a5.2 5.2 0 1 1-2.3-10.1c32-7.2 59.4-4.1 81.4 9.3a5.2 5.2 0 0 1 1.8 7.3z"/>

    <path fill="black"
     d="M129.3 90.5a6.5 6.5 0 0 1-8.9 2.1c-22.5-13.8-56.7-17.8-83.3-9.8a6.5 6.5 0 0 1-3.7-12.5c30.4-9.1 68.2-4.6 93.8 11.1a6.5 6.5 0 0 1 2.1 9.1z"/>

    <path fill="black"
     d="M130.2 66.7C103.3 50.7 58.9 49.2 33.2 57a7.8 7.8 0 0 1-4.5-14.9c29.5-9 78.5-7.2 109.5 11.3a7.8 7.8 0 1 1-8 13.3z"/>

</svg>